<?xml version="1.0" encoding="utf-8"?>
<!-- Generator: Adobe Illustrator 22.0.1, SVG Export Plug-In . SVG Version: 6.00 Build 0)  -->
<svg version="1.1" id="Layer_1" xmlns="http://www.w3.org/2000/svg" xmlns:xlink="http://www.w3.org/1999/xlink" x="0px" y="0px"
	 viewBox="0 0 538.5 543.5" style="enable-background:new 0 0 538.5 543.5;" xml:space="preserve">
<style type="text/css">
	.st0{fill:url(#SVGID_1_);}
	.st1{fill-rule:evenodd;clip-rule:evenodd;}
	.st2{fill:#FF122B;}
	.st3{fill:#FFFFFF;stroke:#FFFFFF;stroke-width:0.25;stroke-linecap:round;stroke-linejoin:round;stroke-miterlimit:10;}
	.st4{fill:#FFFFFF;}
</style>
<path d="M269.2,26.2c-135.6,0-245.5,109.9-245.5,245.5s109.9,245.5,245.5,245.5s245.5-109.9,245.5-245.5S404.9,26.2,269.2,26.2z
	 M269.2,449.3c-97.9,0-177.5-79.6-177.5-177.5S171.4,94.2,269.2,94.2s177.5,79.6,177.5,177.5S367.1,449.3,269.2,449.3z"/>
<linearGradient id="SVGID_1_" gradientUnits="userSpaceOnUse" x1="99.7119" y1="271.7637" x2="438.7881" y2="271.7637">
	<stop  offset="0" style="stop-color:#009A49"/>
	<stop  offset="0.4245" style="stop-color:#FFFFFF"/>
	<stop  offset="0.5524" style="stop-color:#FFFFFF"/>
	<stop  offset="1" style="stop-color:#FF7900"/>
</linearGradient>
<circle class="st0" cx="269.2" cy="271.8" r="169.5"/>
<g>
	<path d="M197.6,228c0,0,1,0,2.8-0.2c0.9-0.1,2-0.2,3.1-0.8c1.5-0.6,1.2-2.8,0-3.9c-1.8-2.5-5.6-4.3-6.7-7.5
		c-0.5-1.6,0.8-3.1,2.6-3.6c1.6-0.5,4.3-0.9,5.9-2.7c1.9-1.8,1.9-5.1,0.5-7.1c-1.1-1.7-2.1-3.5-3-5.2c-1.7-3.3-2.8-7.4-1.4-8.8
		c0.4-0.5,2-1,3.5-1.8c0,0,0.1,0,0.1-0.1c1.3-0.9,2.6-1.7,3.3-2.8c1.7-2,2.1-3.9,2.3-4.5c1.1-5.5-1.9-8.9-2.7-8.4
		c-1.2,0.4-0.3,4-1.2,7.5c-0.1,0.4-0.3,1.7-1.4,3c-0.4,0.7-1.3,1.4-2.2,2c0,0-0.1,0.1-0.1,0.1c-0.5,0.3-1.1,0.6-1.6,0.9
		c-0.8,0.4-1.8,0.9-2.5,1.8c-0.1,0.1-0.1,0.1-0.2,0.2c-2.6,4.5,0,8.6,1.7,12c1.8,3.7,6.1,6.9,3.4,9.7c-1.2,1.4-2.9,1.8-5.1,2.6
		c-2.1,0.7-4.1,3.1-3.2,5.4c1.7,4.2,5.6,5.3,7.4,7.6c1.1,1.1,1.5,2.5,0.2,3.2c-1,0.6-2.1,0.8-3,1C198.7,227.9,197.6,228,197.6,228z"
		/>
	<path d="M197,227.1c0,0,2.3,0.7,5.9,1.3c0.9,0.1,1.9,0.3,3,0.2c1,0.1,2.6-0.7,2.3-2.1c-0.7-2.4-2.7-4-4.4-5.8c0,0,0,0-0.1,0
		c-1.9-1.6-3.6-3.7-2.2-5.8c1.1-2,3-3.2,4.7-4.1c1.7-0.9,3.5-1.1,4.7-2.1c1.2-1.2,1.2-2.3,1.3-2.6c0.9-2.9-0.8-5.1-1-4.9
		c-0.4,0.2,0.5,2.1-0.3,4.6c-0.1,0.3-0.2,1.2-0.8,1.9c-0.8,0.7-2.6,1.1-4.4,2c-1.8,1-3.8,2.4-5,4.7c-0.6,1.2-0.7,2.6,0,3.9
		c0.8,1.1,1.7,1.9,2.6,2.8c1.7,1.7,3.8,3.3,4.5,5.4c0.1,2.4-3.3,1.8-4.8,1.7c0,0-0.1,0-0.1,0C199.3,227.8,197,227.1,197,227.1z"/>
	<path class="st1" d="M200.9,158.9c-0.4-4.9,3.6-8.4,6.9-10.1c0.7-0.4,1.4-0.7,2-1.1c0.5-0.2,1-0.1,1.4,0.3l0.2,0.3l0,1
		c0,0.2-0.1,0.5-0.2,0.7c-2.9,4-7.3,12.2-4.3,18c3.3,6.3,4.6,11.6,1.7,15.4c-3,3.8-6.1,11.9,0.2,18.9c6.3,7-1.7,16.1-2,16.7
		c-0.3,0.7,0,7.1,6.6,9.3c1.8,0.5-2.8,6.5-4,7.8c-1.2,1.3-4.6,4.6-0.7,8c4,3.3,5.5,5.1-1,7.6c-3.6,1.5-6.6,3.1-1.3,7.1
		c-1.3-3.1-2.8-4.5,1.5-6c4.3-1.5,6.1-1.7,5.8-4.8c-0.2-2.2-1.2-3.6,0.1-5.1c0,1,0.3,2,1.1,2.9c1.8,2,4.5,2.7,4.7,3.9
		c0.6,1.1-1.5,3.2-3.7,3.5c-2.3,0.6-5.6,0.6-7,3.4c-1.2,2.6,0.7,5.2,2.3,6c3.3,1.9,5.4,3,5.4,3.1c0.1-0.1-2.1-1.4-5-3.6
		c-1.5-1.1-2.6-3.1-1.5-4.9c1-1.8,3.7-1.8,6.2-2c2.2-0.3,5.1-1.4,5.9-4.2c0.2-0.7,0.9-1,1.5-0.8c0.8,0.3,1.6,0.6,2.6,0.8
		c0,0,0,0,0.1,0c0.5,0.1,1,0.3,1.5,0.4c0.6,0.2,0.9,0.8,0.7,1.4c-0.2,0.5-0.3,1-0.5,1.5c0,0,0.3-0.6,0.8-1.5
		c0.3-0.5,0.9-0.8,1.4-0.5c5.1,2.1,2.5,4-1.2,6.4c1.1,0,2.9-0.9,4.2-2.2c0.6-0.6,1.6-0.3,1.8,0.5c1.3,3.6,2.5,7.1,3.8,11.8
		c6.4,23.6-1.2,37.1-7.5,47.4c-17.9,26.1-15.6,71.7,16.3,76.4c0.8,0.1,1.2,1.1,0.7,1.8c-1.1,1.4-1.9,3-2.4,4.7
		c-0.1,0.2-0.2,0.4-0.3,0.5c-5,4.5-5.2,12.9-3.3,14.6c0.2,0.2,0.4,0.5,0.4,0.8c0.1,3.2,0.7,19.1,0.9,23.4c0,0.6,0.5,1.1,1.1,1.1h0.3
		c0.5,0,1-0.4,1.1-0.9l1.4-8.9l0.3,9.1c0,0.4,0.4,0.7,0.8,0.7h0.6c0.4,0,0.7-0.3,0.8-0.7l1.9-17.9c0.1-1,1.3-1.4,2-0.6
		c3.7,4.5,5.3,11,7.5,17.8c0.1,0.3,0.2,0.5,0.3,0.7c0.2,0.4,0.6,0.7,1,0.7l28.5,0c0.6,0,1.1-0.5,1.1-1c0-0.5,0-1-0.1-1.4
		c-0.1-0.5,0-1.1,0.5-1.3c0.4-0.2,0.7-0.4,0.9-0.6c1.1-1.1,2.6-6.3,0.1-6.7c-5.3-0.9-10.2-2.7-10.2-2.7s-0.2,0.2-0.6,0.4
		c-0.1-0.7-0.6-1.5-1.4-2.3c-2.2-2.2-6.1-9.2-4.9-16.2c0-0.2,0.1-0.4,0.3-0.6c1.5-1.8,3.6-3.4,6.3-4.9c11.8-7,104.4-44.5,106.9-46.8
		c2.8-2.5,13.3-7.7,12.7-22.8c0-0.7-0.1-1.4-0.1-2c-0.1-0.7,0.5-1.2,1.1-1.2c0.4,0,0.9-0.1,1.2-0.4c-0.9-1-2-2-3-3.1
		c-0.1-0.1-0.2-0.3-0.3-0.4c-1.6-5.4-4.8-8.1-9.2-9.7c0,0-0.1,0-0.1-0.1c-0.3-0.2-0.6-0.4-1-0.6c1.7,0.6,3,1.1,3.6,1.5
		c0.7,0.5,3.6,2.5,6.3,3.8c1.3,0.6,2.2-1.3,1-2l-0.2-0.1c0.1-0.1,0.2-0.2,0.3-0.3c-2.8-1.8-8.8-6.1-9.4-6.5c0,0,0,0-0.1,0
		c-1-0.6-9.6-5.6-11.1-6.6c-0.2-0.1-0.3-0.1-0.5-0.2l-16.6-0.4c-1.8,0.2-3.3-0.8-3.9-1.1c-0.6-0.3-45.8-35.1-48.9-37.5
		c-0.1-0.1-0.2-0.2-0.3-0.3c-0.8-1.3-5.9-10-13.4-22c-0.2-0.4-0.2-0.8,0-1.2c1.3-2,5.2-8.4,3.5-13.7c-2-6.4-11.8-10.1-18.4-15.5
		c-6.8-5.5-17.2-19-20.7-22.9c-0.1-0.1-0.2-0.3-0.2-0.4c-0.4-1.3-0.7-2.6-0.9-3.8c-0.8-5,1.6-9.3,4.9-12.6c0.3-0.3,0.7-0.4,1.1-0.3
		c4.3,1.3,13.3,3.4,16.8-0.7c1-1.1,0.1-3.3-0.1-4.5c-0.1-0.6,0.2-1,0.6-1.3c0.4,0.3,2.4-1.1,2.1-2.5c-0.2-1.4-0.9-1.6-1.4-1.7
		c0.5-0.5,1-1,1.6-1.1c0.6-0.2,1-2.1,0.4-2.8c0,0-0.1-0.1-0.3-0.1c-0.5-0.7-1.2-1.3-1.3-1.8c-0.1-0.5,3.5-1.9,2.6-3.4
		c-0.5-0.8-2.9-2.4-4.6-5.6c-0.4-0.7-0.6-1.4-0.7-2.2c-0.1-0.5,0.2-1,0.7-1.2c1.2-0.5,2.4-1.4,2.8-2.4c-0.4,0.7-1.2,1.1-2.2,1.2
		c-0.7,0.1-1.4-0.5-1.3-1.3c0.2-1.2,0.5-2.4,0.8-3.4c0.2-0.6,0.9-0.9,1.5-0.7c0.2,0.1,0.3,0.1,0.3,0.1l0,0c0.5-0.4,1-1.1,1.3-2.2
		c1.4-2.8,3.2-8,0.2-13.3c-4.1-7.4-12.4-11.1-13.5-11.8c0,0-0.1,0-0.1-0.1c-1.2-0.6-2.4-1-3.1-1.2c-3.4-1.4-7.1-2.5-11.1-3.2
		c-8.6-1.6-14.8-0.9-19.7,1.2c-0.3,0-0.6,0-0.8,0c-0.8,0.1-7.1,1.5-11.6,5.6c0,0-0.1,0.1-0.1,0.1c-1.7,1.8-2.8,3.9-3.6,5.7
		c-0.1,0.1-0.1,0.3-0.3,0.4c-1.8,1.7-3.5,3.6-4.8,5.8c-0.1,0.1-0.2,0.3-0.3,0.3c-0.4,0.2-0.8,0.6-1.2,1c-0.3,0.3-1.6,1.5-2.7,3.7
		c-1.1,2.3-1.2,5.4-0.9,8.3c0,0,0,0,0,0.1c0.3,2.1,0.4,4.3,0.4,6.1c-0.1,0.1-0.2,0.1-0.3,0.2c-0.5,0.4-2.9,1.7-6.2,3.7
		c-3.3,1.7-7.7,5.8-7,11c0.1,5,3.3,9,5.4,11.6c2.3,2.6,4,4.2,3.9,4.2c0,0-1.6-1.7-3.8-4.4C203.7,167.7,200.8,163.6,200.9,158.9z
		 M284.7,119.1c0.8,0.9,1.5,1.9,2.1,3c2.9,4.8,1.6,9.7,0.3,12.6C288.2,130.9,287.9,124,284.7,119.1z M277.1,313.2
		c7.2-17.4,9.1-27.9,9.6-32c0.1-0.9,1.1-1.3,1.8-0.7c15.4,12.4,40.9,23.2,57.7,29.5c1.1,0.4,0.9,2-0.2,2.1
		c-7.9,1.1-17.3,3.2-28.3,6.8c-10.8,3.3-26.2,7.8-38.2,12.5c-0.5,0.2-1,0-1.3-0.4C276.9,329.4,273.3,324.4,277.1,313.2
		C277.1,313.2,277.1,313.2,277.1,313.2z M216.9,127.7c-0.5,1.4-0.9,2.9-0.9,4.5c0.1,3.5-0.4,7.7-1.5,11.3c-0.1,0.1-0.3,0.2-0.5,0.3
		c0.1-1.8,0.1-3.8-0.1-5.9c0,0,0,0,0-0.1c-0.1-2.9,0.2-5.9,1.3-7.8C215.8,129,216.4,128.2,216.9,127.7z M236.3,108.8
		c-1.5,1-2.8,2.2-4.1,3.5c-0.1,0.1-0.1,0.1-0.2,0.2c-2.2,1.2-5.2,3.1-8,5.6c0.8-1.6,2-3.4,3.6-4.9c0,0,0.1-0.1,0.1-0.1
		C230.5,110.7,234,109.5,236.3,108.8z M231.4,249.1c-0.5-0.2-0.8-0.8-0.7-1.4c0.2-0.5,0.3-1.1,0.5-1.6c0.4,1.2,0.8,2.3,1.1,3.4
		C232.1,249.4,231.7,249.3,231.4,249.1z M229.5,242.5c0.3,1.3,0.4,2.8,0.3,4.4c-0.1,0.8-1,1.3-1.7,0.9c-2.4-1.6-1.9-3.8-0.6-5.6
		C228,241.3,229.3,241.6,229.5,242.5z M217.9,241.5c-0.1,1.1,0.1,2.2,0.4,3.2c-0.4-0.3-0.7-0.6-0.8-0.9
		C217,243.1,217.3,242.3,217.9,241.5z"/>
	<path class="st2" d="M206.3,245.9c0-0.1,2.2,0.4,5.7-1c1.7-0.7,3.8-1.9,5.2-4.2c1.4-2.3,1.3-5.7-0.3-8.4c-1.6-2.9-0.6-6.7,2.3-8.9
		c2.6-2.4,6.9-3.4,8.9-7.3c0-0.1,0.1-0.1,0.1-0.2c1.5-4.3-1.1-8.3-3.1-11.9c0-0.1-0.1-0.1-0.1-0.1c-2.6-3.2-5.6-7.4-2.1-10.6
		c2.8-3.1,6.5-6,8.2-10.4c1.9-4.3,1.2-9.1,0-13.1c-1.1-4.1-2.7-8-0.8-11c1.7-3.1,5.1-4.9,8.1-6.5c6-3.1,12.1-5.4,14.7-10.3
		c0-0.1,0.1-0.1,0.1-0.2c1.7-5.1,0.4-8.2,0.5-9.3c-0.6-4.6-1.1-8.8,0.7-10.7c1.8-1.8,4-2,3.9-2.5c0-0.2-1.4-0.1-4.4,2
		c-3.1,2.7-2.5,7-1.9,11.5c0,1.1,1,4.4-0.2,8c0,0.1,0,0.1-0.1,0.2c-1.7,3.6-8.3,6.3-14.4,9.5c-3,1.7-6.7,3.6-8.8,7.5
		c-2.3,4.1-0.2,8.7,0.8,12.5c1.2,3.9,1.9,8.2,0.3,12c-1.4,4-4.8,6.8-7.8,10.1c-1.6,1.7-2.3,4.5-1.3,6.7c0.9,2.1,2.4,3.8,3.6,5.4
		c0,0,0,0.1,0.1,0.1c2.1,3.4,4.6,7.4,3.2,11.1c-1.6,3.5-5.9,4.7-8.6,7.2c-3.1,2.3-4.1,6.6-2.3,9.5c1.7,2.8,1.8,5.9,0.5,8.2
		c-1.3,2.2-3.3,3.5-5,4.2C208.5,246.2,206.2,245.8,206.3,245.9z"/>
	<path class="st3" d="M294.8,377.1c-7.7,4.9-30.9,15.3-47.6,15.7c18.1-0.4,41.7-10.8,49.8-16c8.1-5.2,17.6-12.2,27.7-18.9
		c9.2-6.2,23.1-13.9,35.9-16.1c12.9-2.8,22.5,2.2,22.4,2.1c0.4,0-9.8-5.2-22.7-2.5c-12.8,2.1-26.4,9.2-36.1,15.4
		C313.4,363.9,301.8,372.7,294.8,377.1z M280.4,331c-4.7,0.7-14.8,4.3-16.9-3.2c0.5,2.7,2.3,5.4,5.1,5.5
		C275.5,333.6,280.4,331,280.4,331z M231.2,195.2v0.2c3.7-2.4,6.3-7.9,18.4-1.7c8.5,4.3,17.6,20.7,19.8,23.4
		c2.2,2.7,37.7,49.8,37.7,49.8s-41.9-55.8-45.7-61.8C257.8,199.3,243.5,181.3,231.2,195.2z M286.8,279.1c-1.4-2.3-3.9-5.6-7-9.5
		C284,275.2,286.8,279.1,286.8,279.1z M325.1,278.7c-2-1.3-13.5-9.1-17.8-11.8c1.8,1.2,53.9,36.5,53.9,36.5S327,280.1,325.1,278.7z
		 M242.1,226.2c1.3,1.3,4.6,3.9,6.7,6.2c1.6,1.8,20.1,23.1,31.1,37.2C268.7,254.6,247.5,227,242.1,226.2z"/>
	<path class="st4" d="M262.4,108.6c2.6,1.3,6.9,4.2,9.7,6.7c3,2.7,4.4,4.7,6.2,7.9c1.5,2.7,3.1,7.1,1.2,10.3c-1.9,3.1-5.2,3.9-5,4
		c-0.1-0.1,3.1-0.6,5.3-3.7c2.3-3.3,0.8-8.3-0.6-11.1c-1.6-3.1-3.3-5.6-6.2-8.1c-1.4-1.2-3.1-2.5-4.9-3.6c-1.8-1.1-3.8-2.1-5-2.6
		c-3.4-1.5-5.6-1.7-6.5-1.8C257.3,106.7,259.3,107.1,262.4,108.6z M262.3,167.1c-0.1-0.1-0.3-0.2-0.5-0.4
		C262,166.8,262.2,167,262.3,167.1z M262.3,167.1c0.1,0.1,0.1,0.1,0.1,0.2C262.5,167.2,262.4,167.2,262.3,167.1z M256.3,106.6
		C256.2,106.6,256.2,106.6,256.3,106.6C256.2,106.6,256.2,106.6,256.3,106.6z M256.3,106.6c0.1,0,0.2,0,0.3,0
		C256.4,106.6,256.3,106.6,256.3,106.6z M231.8,181.9c-0.5,3.9-0.5,6.3-0.6,7c0.1-0.7,0.2-2.7,0.9-6.4c0.6-2.9,1.9-8.1,3.7-11.5
		c1.9-3.6,3.7-5.6,6.3-8.2c1.6-1.5,3.7-3.2,5.6-5c1.5,0.8,0.3,0.2,1.9,0.9c-0.3,2.2-0.3,4.6,0,7c0.4,3.8,1.8,7.5,2.6,9.7
		c2.8,6.4,5.1,9.8,5.8,10.8c-0.6-1-2.5-4.1-5-10.1c-2.1-4.8-3.8-14.2-1.7-20.6c2-6.8,4.9-10.8,8.6-16c4.1-4.4,6.1-12.9,3.2-19.1
		c-2.6-6.2-7.7-9-7.5-9c-0.2,0.1,4.6,2.9,7.1,9c2.8,6.1,0.4,14.5-3.6,18.5c-3.5,4.6-6.5,8.8-8.4,14.7c-0.2,0.3-0.4,0.5-0.6,0.8
		c-2.3,2.9-6.1,5.4-8.6,7.6c-2.7,2.3-4.7,4.7-6.5,8.2c-0.9,1.7-1.6,3.8-2.2,5.9C232.3,178.4,231.9,180.6,231.8,181.9z M258.1,186.4
		c0.1,0.1,0.1,0.2,0.1,0.2C258.2,186.6,258.2,186.6,258.1,186.4z M231.2,188.9c0,0.1,0,0.2,0,0.2C231.2,189.1,231.2,189,231.2,188.9
		z M258.1,159.2c0.6,4.5,2.7,6.5,3.7,7.4c-0.9-0.9-2.6-2.8-3.2-6.7c-0.6-3.9,2.2-10.2,4.9-14.3c2.7-4.5,4.9-7.2,6.9-11.7
		c2-3.8,2.4-10.3-0.9-14.2c-2.9-3.9-6.6-5.7-6.4-5.7c-0.1,0.1,3.3,2,6,5.9c3.1,3.9,2.4,10.2,0.4,13.7c-1.9,4-4.3,7-6.7,11.2
		c-1.2,2.1-2.6,4.5-3.5,7.2C258.2,154.6,257.8,157.5,258.1,159.2z"/>
	<path class="st4" d="M243.2,116.6c0.4,0.1-8.1,0.2-12.9,8.4c0,0-0.1,0.1-0.1,0.1c-1,2-1.2,4.6-0.6,6.9c0.7,2.3,1.9,4.5,2.5,6.8
		c1.5,4.6-0.9,9.2-3.5,11.8c-5.4,5.8-13.9,8.5-16,18.2c0,0.1,0,0.1,0,0.2c-0.6,4.9,2.4,9.4,3.8,14.3c1.9,5-0.5,10-2,12.7
		c-1.3,2.6-0.7,5.3,0.3,7.2c0.8,1.9,1.7,3.5,2.3,4.8c1.4,2.5,2,3.9,2.1,4.1c0,0.1-0.4-1-1.6-3.3c-0.6-1.2-1.3-2.7-2.2-4.5
		c-0.7-1.8-2-4.2-1.1-6.9c1.3-3,4.8-7.7,3.2-13.2c-1.1-5.2-4.3-10.1-3.9-14.6c0.5-4.8,3.7-7.8,6.5-10.4c2.9-2.6,6.2-4.6,9.3-8
		c2.8-2.9,5.1-7.9,3.4-12.6c-1.6-4.4-4.5-8.9-2.3-13.2C234.8,117.3,243.7,116.7,243.2,116.6z"/>
	<path d="M298.7,231.4h3.4c0.6,0,1-0.4,1-1v-0.9c0-0.6-0.4-1-1-1h-3.4c-0.6,0-1,0.4-1,1v0.9C297.7,230.9,298.1,231.4,298.7,231.4z"
		/>
</g>
<path class="st4" d="M257,154.9c-2.7,2.4-2.9,2.4-5.5-0.2c2.4,2.7,2.4,2.9-0.2,5.5c2.7-2.4,2.9-2.4,5.5,0.2
	C254.5,157.7,254.5,157.5,257,154.9z"/>
<g>
	<path class="st4" d="M104.3,146.1l13.6,11.1l-4.4,5.4l-33.4-27.2l4.4-5.4l14.3,11.6l8.4-10.3L93,119.6l4.4-5.4l33.4,27.2l-4.4,5.4
		l-13.6-11.1L104.3,146.1z"/>
	<path class="st4" d="M150.3,124.4l-3.2,2.7c-6,4.9-12.6,3.3-18.5-3.9l-9-10.9c-5.9-7.2-6.1-14-0.3-18.9l3.2-2.7
		c5.9-4.8,12.6-3.4,18.5,3.8l9.2,11.1C156,112.7,156.2,119.5,150.3,124.4z M143.6,121.4l1.8-1.5c2.7-2.3,2.4-6.4-0.4-9.9l-9.4-11.4
		c-2.9-3.5-6.9-4.6-9.6-2.3l-1.8,1.5c-2.7,2.3-2.5,6.3,0.4,9.9l9.4,11.4C136.9,122.6,140.9,123.7,143.6,121.4z"/>
	<path class="st4" d="M145.3,74.2L170,60.7l3.2,5.8l-9.3,5.1l17.5,32l-6.1,3.3l-17.5-32l-9.3,5.1L145.3,74.2z"/>
	<path class="st4" d="M206.7,47.3l21.5-5l1.5,6.4L215,52.2l2.7,11.9l12-2.8l1.5,6.4l-12,2.8l2.5,10.8l14.7-3.4l1.5,6.4l-21.5,5
		L206.7,47.3z"/>
	<path class="st4" d="M257.9,65c-6.5-2-13.6-4.2-14.1-13.2c-0.4-7.6,3.4-12.2,10.9-12.6l4.4-0.2c7.4-0.3,11.6,4.8,12.1,14.1
		l-7.1,0.4c-0.2-3.9-1.6-8.1-5.1-7.9l-3.8,0.2c-2.5,0.1-4,2.5-3.9,5.3c0.2,3.8,4,5.2,7.8,6.4c6.7,2,13.2,3.4,13.7,11.5
		c0.4,8.1-3.8,13-12.1,13.6l-2.5,0.1c-8.5,0.3-13.2-4.7-13.7-13.7l7.6-0.4c0.3,5.1,2.5,7.7,5.2,7.6L260,76c2.4-0.1,5.6-1.3,5.4-5.2
		C265.2,66.8,262.6,66.5,257.9,65z"/>
	<path class="st4" d="M305.6,57.7l0.2-1.6c0.6-4.5-0.8-8.1-4.3-8.5l-2.3-0.3c-3.5-0.5-6.3,2.5-6.9,7l-2,14.6
		c-0.6,4.5,1.3,8.1,4.8,8.6l2.3,0.3c3.5,0.5,5.8-2.6,6.4-7.1l0.3-2.1l6.8,0.9l-0.3,1.9c-1.2,9.2-5.6,14-13.2,13l-4.2-0.6
		c-7.6-1.1-11-7-9.7-16.2l1.9-14.1c1.2-9.2,6.1-14,13.7-13l4.2,0.6c7.6,1.1,10.5,6.9,9.3,16.1l-0.2,1.4L305.6,57.7z"/>
	<path class="st4" d="M332.7,93.3l-4-1.4c-7.3-2.6-9.4-9-6.4-17.8l4.6-13.4c3-8.8,8.7-12.5,16-10.1l4,1.4c7.2,2.5,9.5,9,6.5,17.7
		l-4.7,13.6C345.7,92,339.9,95.7,332.7,93.3z M331.7,86l2.2,0.8c3.4,1.2,6.7-1.3,8.2-5.5l4.8-13.9c1.5-4.3,0.3-8.2-3.1-9.4l-2.2-0.8
		c-3.4-1.2-6.7,1.2-8.2,5.5l-4.8,13.9C327.2,81,328.4,84.9,331.7,86z"/>
	<path class="st4" d="M375.7,114.2l-6.2-3.6l1.5-16.8l-4.3-2.5l-7.7,13.3l-6-3.5l21.5-37.4l13.4,7.7c6.5,3.8,7.4,8.3,3.1,15.6
		l-2,3.4c-3.5,6-7,8.1-11.8,6.5L375.7,114.2z M385.4,83.6c1.5-2.7,1-5.3-1.2-6.6l-7-4L370,85.6l7,4c2.2,1.3,4.5,0.7,6.3-2.3
		L385.4,83.6z"/>
	<path class="st4" d="M409.6,85.5l21.4,18.2l-4.3,5l-8-6.8l-23.7,27.8l-5.3-4.5l23.7-27.8l-8.1-6.9L409.6,85.5z"/>
	<path class="st4" d="M429.8,141.1c-2.2-6.4-4.6-13.5,2.4-19.2c5.9-4.8,11.9-4.4,16.6,1.4l2.7,3.4c4.6,5.8,3,12.2-4.3,18.1l-4.5-5.6
		c3-2.5,5.5-6.1,3.4-8.7l-2.4-3c-1.6-1.9-4.4-1.8-6.6,0c-3,2.4-1.9,6.3-0.5,10.1c2.3,6.6,5,12.7-1.3,17.8
		c-6.3,5.1-12.8,4.5-18.2-1.8l-1.6-1.9c-5.2-6.7-4-13.4,3.1-19.1l4.8,5.9c-4,3.2-4.8,6.5-3.1,8.6l1.8,2.2c1.5,1.9,4.4,3.8,7.4,1.3
		C432.7,148,431.5,145.8,429.8,141.1z"/>
</g>
<g>
	<path class="st4" d="M138,404l5.4,5.1L109.2,445l-5.4-5.1L138,404z"/>
	<path class="st4" d="M158.2,480.4l-6.5-4l2.8-19l-4.5-2.8l-9.3,15l-6.3-3.9l26-42.2l14,8.6c6.8,4.3,7.4,9.3,2.3,17.5l-2.4,3.8
		c-4.2,6.8-8.2,9.2-13.3,7.4L158.2,480.4z M170.9,445.8c1.8-3,1.5-6-0.9-7.5l-7.3-4.5l-8.8,14.2l7.3,4.5c2.3,1.4,4.8,0.7,7.1-2.6
		L170.9,445.8z"/>
	<path class="st4" d="M202.8,446.2l22.4,7l-2.3,7.2l-15.4-4.8l-4.2,13.3l12.5,3.9l-2.3,7.2l-12.5-3.9l-3.8,12.2l15.4,4.8l-2.3,7.2
		l-22.4-7L202.8,446.2z"/>
	<path class="st4" d="M252.9,457.3l-3.1,41.9l13.9,1l-0.6,7.6l-21.3-1.6l3.7-49.4L252.9,457.3z"/>
	<path class="st4" d="M295.9,456.2l9.8-1.7l20.5,46.8l-7.3,1.2l-4.4-10.4l-14.4,2.4l-0.7,11.2l-7.3,1.2L295.9,456.2z M300.6,486.3
		l10.5-1.8l-9-21.3L300.6,486.3z"/>
	<path class="st4" d="M335.1,446.7l7.6-3.6l27.2,23.4l-14-29.6l6.7-3.2l21.2,44.7l0.1,0.1l-7.3,3.5l-27.9-24.1l14.5,30.5l-6.7,3.2
		L335.1,446.7z"/>
	<path class="st4" d="M423.3,428.5c6.9,8,7.4,15.4,1.2,20.8l-11.7,10.1l-32.4-37.5l11.7-10.1c6.2-5.3,13.4-3.8,20.4,4.2L423.3,428.5
		z M406.8,420.6c-3.4-3.9-7.6-4.9-10.5-2.5l-5.3,4.7l22.4,26l5.4-4.7c2.9-2.5,2.5-6.8-0.9-10.7L406.8,420.6z"/>
</g>
</svg>
