<?xml version="1.0" encoding="utf-8"?>
<!-- Generator: Adobe Illustrator 22.0.1, SVG Export Plug-In . SVG Version: 6.00 Build 0)  -->
<svg version="1.1" id="Layer_1" xmlns="http://www.w3.org/2000/svg" xmlns:xlink="http://www.w3.org/1999/xlink" x="0px" y="0px"
	 viewBox="0 0 400 400" style="enable-background:new 0 0 400 400;" xml:space="preserve">
<style type="text/css">
	.st0{display:none;}
	.st1{display:inline;fill:#FF931E;}
	.st2{fill:none;}
	.st3{fill:#BF161C;}
	.st4{fill:#F15A24;}
	.st5{fill:url(#SVGID_1_);}
	.st6{fill:url(#SVGID_2_);}
	.st7{fill:#004913;}
	.st8{fill:#FFFFFF;}
	.st9{fill:#FFFFFF;stroke:#FFFFFF;stroke-width:0.25;stroke-miterlimit:10;}
</style>
<g>
	<g class="st0">
		<path class="st1" d="M177,21c10.3,0,23.6,11.9,28.9,17.4c3.3,3.4,6.7,6.9,9.9,10.4c3.4,3.7,6.5,5.6,10.9,8.1
			c2.6,1.5,5.7,5.1,8.8,5.1c0.3,0,0.6,0,0.9-0.1c1.6-0.4,2-2,3.7-2c0.1,0,0.3,0,0.5,0c1.7,0.2,2.8,1.8,3.6,3.1
			c7.9,0.1,14.2,1.5,19.3,8.1c4.6,6,7.8,13.7,9.7,21c0.8,3,1.6,5.9,2.4,8.9c39.8,24.4,66.4,68.4,66.4,118.5c0,76.8-62.2,139-139,139
			c-30.8,0-59.3-10.1-82.4-27.1c-7.7,0.2-15.3,0-23,0.5c-10.6,0.7-21.4,4.7-30.5,10.3c-2.3,1.4-5.3,5.1-7.9,5.1
			c-1.2,0-2.3-0.8-3.2-2.8c-1.4-3,0.2-7,1.6-9.7c4.2-8.2,12.7-15.2,19.8-20.8c4.7-3.8,10-6.9,15.5-9.6c-18.2-23.5-29-52.9-29-84.9
			c0-75.7,60.4-137.2,135.7-139c0.5-0.9,1.4-2,2-2.5c1.7-1.6,4.7-2.8,5.4-5.1c0.9-3-1.5-7.3-2.6-10c-1.8-4.1-4-7.9-6.5-11.5
			c-4.9-7.2-10.8-13.8-18.9-17.3c-3.4-1.4-15.2-1.6-11.9-7.3C169.7,22.7,173.2,21,177,21 M177,11C177,11,177,11,177,11
			c-7.8,0-14.4,3.9-18.5,11c-2.2,3.9-2.5,8.1-0.8,11.9c3.1,6.8,10.6,8.3,15.6,9.3c0.7,0.1,1.7,0.3,2.1,0.5
			c4.9,2.1,9.4,6.4,14.4,13.7c2.3,3.3,4.1,6.6,5.5,9.8c0.2,0.5,0.4,1,0.7,1.5c0.1,0.3,0.3,0.6,0.4,0.9c-0.5,0.4-1,0.8-1.6,1.3
			c-37.3,2-72.1,17.7-98.4,44.6c-27.4,28-42.5,65-42.5,104.2c0,29.4,8.4,57.4,24.3,81.6c-2.6,1.6-4.9,3.3-7.1,5.1
			c-6.8,5.5-17.2,13.7-22.5,24.1c-3.6,7-4.2,13.2-1.8,18.5c3.6,7.8,9.8,8.6,12.3,8.6c5.4,0,9.3-3.3,11.9-5.5c0.4-0.4,1-0.9,1.3-1.1
			c8.3-5.2,17.5-8.3,25.8-8.8c5-0.3,9.9-0.4,15.2-0.4c1.3,0,2.6,0,4,0c25.1,17.7,54.7,27,85.6,27c39.8,0,77.2-15.5,105.4-43.6
			c28.1-28.1,43.6-65.6,43.6-105.4c0-25.9-6.8-51.5-19.6-73.9c-11.8-20.6-28.4-38.1-48.2-51.1c-0.4-1.6-0.9-3.3-1.3-5
			c-1.7-6.6-5.1-16.3-11.4-24.6c-6.6-8.6-14.8-11.1-22.5-11.8c-1.7-1.5-4-2.8-7.1-3.2c-0.6-0.1-1.2-0.1-1.8-0.1
			c-1.9,0-3.4,0.4-4.7,0.9c-1.1-0.9-2.4-1.8-3.8-2.7c-4.1-2.3-6.2-3.6-8.5-6.2c-3.2-3.5-6.5-6.9-10.1-10.6
			C207.2,25.3,191.7,11,177,11L177,11L177,11z"/>
	</g>
	<g>
		<g>
			<path class="st2" d="M222.3,78c-1.9,0.4-3.7,0.8-5.5,1.3C218.3,78.9,220.3,78.4,222.3,78z"/>
			<path class="st2" d="M105.9,219.7c0,23.4,8.3,44.9,22.1,61.7c2.2-1.2,4.4-2.3,6.6-3.5c-13.3-15.7-21.4-36-21.4-58.1
				c0-47.8,37.4-86.9,84.5-89.8c-0.8-1.8-1.5-3.5-2.3-5.3c-0.3-0.6-0.5-1.2-0.8-1.8C144.9,127.2,105.9,169,105.9,219.7z"/>
			<path class="st2" d="M293.1,219.7c0,48.6-38.8,88.3-87,89.9c-1.2,0.8-2.4,1.6-3.7,2.3c-2.4,1.5-4.9,3.1-7.5,4.7
				c2.7,0.2,5.4,0.4,8.2,0.4c53.6,0,97.2-43.6,97.2-97.2c0-15.5-3.7-30.2-10.1-43.2c-0.6,4.3-1.4,8.7-2.3,13.1
				C291.2,199,293.1,209.2,293.1,219.7z"/>
			<path class="st3" d="M67.3,342.5c9.1-5.6,19.9-9.7,30.5-10.3c12.1-0.8,24.4,0,36.4-1.3c11.3-1.2,23-4.2,33.7-8.1
				c10.9-4,21.1-10.3,30.9-16.5c10.1-6.3,19.5-13.1,28.3-21.2c19.5-17.9,34.9-37.3,44.2-62.4c9.3-25,15.4-52.2,13.8-79
				c-1.1-17.4-7.4-34.7-11.8-51.5c-1.9-7.3-5.1-15-9.7-21c-5.1-6.6-11.3-8-19.3-8.1c-6.6,4.2-11.5,8.7-16.1,15.1
				c-9,0-18.1,0.7-26.8,3.4c-0.5,0.2-1,0.2-1.2,0.2c-0.1,0-0.2,0-0.3,0c-1.3,4.3-4.6,8.1-5.4,12.8c-1,5.9,0.3,11.5,2.5,16.9
				c4.3,10.7,9.7,21,12.8,32.2c3,10.9,6.2,21,5.7,32.6c-0.6,11.8-2.8,22.7-7.6,33.5c-9.3,21-22.6,40.5-40.9,54.6
				c-18.5,14.2-38.6,24.9-60,33.8c-10.2,4.3-20.7,8.9-29.4,15.8c-7.1,5.7-15.6,12.6-19.8,20.8c-1.4,2.7-3,6.7-1.6,9.7
				c0.9,2.1,2.1,2.8,3.2,2.8C62,347.6,64.9,344,67.3,342.5z"/>
			<path class="st2" d="M293.1,219.7c0,19.2-6,37-16.3,51.6c-0.9,1.4-1.9,2.7-3,4c-15.9,20.2-40.3,33.4-67.7,34.3
				c-1.2,0.8-2.4,1.6-3.7,2.3c-2.4,1.5-4.9,3.1-7.5,4.7c2.7,0.2,5.4,0.4,8.2,0.4c53.6,0,97.2-43.6,97.2-97.2
				c0-15.5-3.7-30.2-10.1-43.2c-0.6,4.3-1.4,8.7-2.3,13.1C291.2,199,293.1,209.2,293.1,219.7z"/>
			<g>
				<path d="M128,281.3c-13.8-16.8-22.1-38.3-22.1-61.7c0-50.7,39-92.5,88.7-96.9c-1.3-2.8-2.5-5.8-3.7-8.7c-3-7.5-3.9-14-2.9-20.5
					c0.6-3.7,2.2-6.8,3.6-9.5c0.6-1.1,1.1-2.2,1.6-3.2c-72.1,5.1-129,65.2-129,138.6c0,29.6,9.2,57,25,79.5
					c4.9-2.5,10.1-4.7,15.3-6.9C112.8,288.8,120.6,285.1,128,281.3z"/>
				<path d="M284.3,106.8c3.4,11.8,6.7,24,7.4,36.5c0.7,10.6,0.2,21.6-1.5,33.1c6.5,13,10.1,27.7,10.1,43.2
					c0,53.6-43.6,97.2-97.2,97.2c-2.8,0-5.5-0.1-8.2-0.4c-7.6,4.6-15.9,9.2-24.7,12.4c-11.8,4.3-24.1,7.2-35.3,8.4
					c-1.7,0.2-3.3,0.3-5,0.4c21.3,13.2,46.3,20.8,73.2,20.8c76.8,0,139-62.2,139-139C342.1,173.2,319.3,132.1,284.3,106.8z"/>
			</g>
			<path class="st4" d="M273.8,275.3c-8.8,10.3-24.7,18-48.5,20.3c-5.8,4.8-12,9.4-19.2,14C233.5,308.7,257.8,295.5,273.8,275.3z"/>
			<path class="st4" d="M245.5,276.2c-4.2,4.6-8.9,9.2-13.9,13.8c-1.2,1.1-2.4,2.1-3.6,3.2C238.5,289.7,244.1,283.3,245.5,276.2z"/>
			<path class="st4" d="M276.8,271.3c10.3-14.6,16.3-32.4,16.3-51.6c0-10.5-1.8-20.7-5.2-30.1c-2.4,11.5-5.9,23.3-10.4,35.5
				c-0.4,1.2-0.9,2.4-1.4,3.5c1.1,3.5,2.3,7.3,3.8,11.5C283.7,250.9,282.8,261.9,276.8,271.3z"/>
			<path class="st4" d="M172.6,235.5c0,0-10.8,8.9-12.4,25.7c0.9-0.6,1.7-1.3,2.6-1.9c3.4-2.6,6.7-5.5,9.8-8.6
				C171.7,247,171.5,242,172.6,235.5z"/>
			<path class="st4" d="M123.7,238.9c0-35.8,23.2-54.9,23.2-54.9c-9.5,54.3,32.7,50.8,18.4,26.9c-14.3-23.9,8.2-50.8,8.2-50.8
				c-7.5,32.2,16.4,49.6,16.4,49.6c-18.9-37.7,0.3-70.3,6.8-79.7c-46.6,3.3-83.6,42.3-83.6,89.7c0,22.1,8.1,42.4,21.4,58.1
				c1.3-0.7,2.6-1.5,3.9-2.2C128.6,266.2,123.7,253.8,123.7,238.9z"/>
			<path class="st4" d="M198.8,162.5c-1.6-10.1,0-16.9,2.8-22.7c-1.2-3.3-2.5-6.5-3.9-9.8C191.4,146.9,198.8,162.5,198.8,162.5z"/>
			<path class="st4" d="M187,222.6c0,0-8,9.5-6.9,20c2.3-2.7,4.5-5.5,6.6-8.5C186.1,230.8,186,226.9,187,222.6z"/>
			<path class="st4" d="M191.8,226.4c2.4-4,4.7-8.2,6.9-12.6c0-2.7,0.5-5.8,2-8.9C200.7,204.8,193.4,213.5,191.8,226.4z"/>
			<linearGradient id="SVGID_1_" gradientUnits="userSpaceOnUse" x1="253.7123" y1="228.6298" x2="253.7123" y2="295.5823">
				<stop  offset="0" style="stop-color:#FAAF40"/>
				<stop  offset="0.1778" style="stop-color:#FAAC3C"/>
				<stop  offset="0.3471" style="stop-color:#F8A231"/>
				<stop  offset="0.51" style="stop-color:#F6921E"/>
				<stop  offset="0.83" style="stop-color:#F05A28"/>
				<stop  offset="0.9347" style="stop-color:#ED3125"/>
				<stop  offset="1" style="stop-color:#EC1C24"/>
			</linearGradient>
			<path class="st5" d="M273.8,275.3c1.1-1.3,2.1-2.6,3-4c6-9.4,6.9-20.3,3.2-31.1c-1.5-4.2-2.7-8-3.8-11.5
				c-6.8,17-16.7,32.4-30.7,47.6c-1.3,7.1-7,13.5-17.5,17c-0.9,0.8-1.8,1.6-2.8,2.3C249,293.3,265,285.6,273.8,275.3z"/>
			<linearGradient id="SVGID_2_" gradientUnits="userSpaceOnUse" x1="166.3272" y1="129.1791" x2="166.3272" y2="275.629">
				<stop  offset="0" style="stop-color:#FAAF40"/>
				<stop  offset="0.1778" style="stop-color:#FAAC3C"/>
				<stop  offset="0.3471" style="stop-color:#F8A231"/>
				<stop  offset="0.51" style="stop-color:#F6921E"/>
				<stop  offset="0.83" style="stop-color:#F05A28"/>
				<stop  offset="0.9347" style="stop-color:#ED3125"/>
				<stop  offset="1" style="stop-color:#EC1C24"/>
			</linearGradient>
			<path class="st6" d="M189.9,209.7c0,0-23.9-17.3-16.4-49.6c0,0-22.5,26.9-8.2,50.8c14.3,23.9-28,27.5-18.4-26.9
				c0,0-23.2,19.1-23.2,54.9c0,14.9,4.8,27.3,14.7,36.7c7.8-4.5,15-9.3,21.9-14.4c1.5-16.8,12.4-25.7,12.4-25.7
				c-1.1,6.5-0.9,11.5,0.1,15.2c2.6-2.5,5-5.2,7.4-8c-1.1-10.5,6.9-20,6.9-20c-1,4.3-1,8.2-0.3,11.5c1.8-2.5,3.5-5.1,5.1-7.8
				c1.6-12.8,8.9-21.5,8.9-21.5c-1.4,3.1-1.9,6.2-2,8.9c1.1-2.1,2.1-4.3,3.1-6.5c4.3-9.6,6.5-19.5,7.1-31.1c0.5-9.5-1.9-18-4.7-27.8
				c-0.2-0.9-0.5-1.8-0.7-2.7c-0.5-2-1.2-3.9-1.9-5.8c-2.8,5.8-4.4,12.6-2.8,22.7c0,0-7.4-15.6-1.1-32.5c0,0,0,0,0-0.1
				c-0.1-0.2-0.2-0.5-0.3-0.7c-0.2,0.2-0.4,0.5-0.6,0.8C190.2,139.4,171,172,189.9,209.7z"/>
			<path class="st7" d="M201.4,81.7c8.7-2.7,17.8-3.4,26.8-3.4c4.6-6.4,9.5-10.9,16.1-15.1c-0.9-1.3-2-2.9-3.6-3.1
				c-2.2-0.3-2.4,1.5-4.2,1.9c-3.4,0.8-6.8-3.4-9.7-5c-4.4-2.5-7.5-4.4-10.9-8.1c-3.2-3.5-6.6-7-9.9-10.4
				c-7.3-7.5-29.6-27.3-38.7-11.4c-3.3,5.7,8.6,5.9,11.9,7.3c8.2,3.5,14,10.1,18.9,17.3c2.5,3.6,4.7,7.5,6.5,11.5
				c1.1,2.6,3.5,7,2.6,10c-0.7,2.3-3.8,3.5-5.4,5.1c-1,0.9-3.1,3.3-1.9,3.7C200.1,82,200.6,82,201.4,81.7z"/>
			<path class="st8" d="M251.2,86c0,0-23-4.2-25,19.1c-2,23.3,12.4,41.8,17.8,60.8c0.9,3.1,1.4,6.3,1.6,9.4c0,0,11-8.6,4.7-25.7
				C238,116.4,236.3,98.5,251.2,86z"/>
		</g>
		<g>
			<path class="st9" d="M89.5,288.5c-0.2-0.3,0-0.6,0.6-0.9l9.5-5.2l-5.3-9.6l-9.5,5.2c-0.5,0.3-0.9,0.3-1.1,0l-1.2-2.2
				c-0.2-0.3,0-0.6,0.5-0.9l24-13.1c0.5-0.3,0.9-0.3,1.1,0l1.2,2.2c0.2,0.3,0,0.6-0.6,0.9l-9.7,5.3l5.3,9.6l9.7-5.3
				c0.5-0.3,0.9-0.3,1.1,0l1.2,2.2c0.2,0.3,0,0.6-0.5,0.9l-24,13.1c-0.5,0.3-0.9,0.3-1.1,0L89.5,288.5z"/>
			<path class="st9" d="M75.3,255.3c-0.3-1.1-0.5-2.2-0.3-3.1s0.6-1.8,1.2-2.5c0.7-0.8,1.7-1.4,2.9-2.1c1.3-0.6,2.9-1.2,4.8-1.8
				l6.9-2.1c1.9-0.6,3.6-1,5-1.2c1.4-0.2,2.6-0.2,3.6,0.1c1,0.2,1.8,0.7,2.4,1.4c0.6,0.7,1.1,1.6,1.4,2.7l2.1,6.9
				c0.3,1.1,0.5,2.2,0.3,3.1c-0.1,0.9-0.5,1.7-1.2,2.5c-0.7,0.8-1.7,1.5-2.9,2.1c-1.3,0.6-2.9,1.3-4.8,1.8l-6.9,2.1
				c-1.9,0.6-3.6,1-5,1.1c-1.4,0.2-2.6,0.1-3.6-0.1c-1-0.2-1.8-0.7-2.4-1.4c-0.6-0.7-1.1-1.6-1.5-2.7L75.3,255.3z M95.2,259.8
				c1-0.3,1.9-0.6,2.6-0.9c0.7-0.3,1.2-0.6,1.5-1c0.3-0.4,0.5-0.7,0.6-1.2c0.1-0.4,0-0.9-0.2-1.5l-2-6.6c-0.2-0.6-0.4-1-0.7-1.4
				c-0.3-0.3-0.7-0.5-1.2-0.6c-0.5-0.1-1.1-0.1-1.8,0c-0.7,0.1-1.6,0.3-2.7,0.7l-6,1.8c-1,0.3-1.9,0.6-2.6,0.9s-1.2,0.6-1.5,1
				c-0.3,0.3-0.5,0.7-0.6,1.2c-0.1,0.4,0,0.9,0.2,1.5l2,6.6c0.2,0.6,0.4,1,0.7,1.4c0.3,0.3,0.7,0.5,1.2,0.6c0.5,0.1,1.1,0.1,1.8,0
				c0.7-0.1,1.6-0.3,2.7-0.7L95.2,259.8z"/>
			<path class="st9" d="M70.3,224.7c0-0.4,0.2-0.6,0.9-0.6l4.1-0.4c0.6-0.1,1,0.1,1,0.4l0.8,7.3l22.2-2.4c0.6-0.1,0.9,0.1,1,0.4
				l0.3,2.5c0,0.3-0.3,0.5-0.9,0.6l-22.2,2.4l0.8,7.3c0,0.4-0.3,0.6-0.9,0.6l-4.1,0.4c-0.6,0.1-0.9-0.1-1-0.4L70.3,224.7z"/>
			<path class="st9" d="M75.4,182.9c0.1-0.4,0.4-0.5,1-0.3l3.9,0.9c0.6,0.1,0.9,0.4,0.8,0.7l-2.2,10c-0.1,0.6-0.2,1.1-0.1,1.5
				c0.1,0.4,0.3,0.8,0.7,1.1c0.4,0.3,0.9,0.6,1.6,0.9c0.7,0.3,1.6,0.5,2.6,0.7l0.4,0.1l2.9-12.9c0.1-0.3,0.4-0.4,1-0.3l3.2,0.7
				c0.6,0.1,0.9,0.4,0.8,0.7l-2.9,12.9l0.7,0.2c1.1,0.2,2,0.4,2.7,0.5c0.7,0.1,1.3,0,1.8-0.1c0.5-0.1,0.8-0.4,1.1-0.7
				c0.3-0.3,0.5-0.8,0.6-1.4l2.2-10c0.1-0.3,0.4-0.5,1-0.3l3.9,0.9c0.6,0.1,0.9,0.4,0.8,0.7l-2.2,10c-0.3,1.2-0.7,2.1-1.2,2.8
				c-0.6,0.7-1.3,1.2-2.3,1.6c-1,0.3-2.2,0.4-3.6,0.4c-1.4-0.1-3.1-0.3-5.1-0.8l-7-1.6c-2-0.4-3.6-0.9-4.9-1.5
				c-1.3-0.5-2.3-1.2-3.1-1.9c-0.7-0.7-1.2-1.5-1.4-2.4c-0.2-0.9-0.2-1.9,0.1-3.1L75.4,182.9z"/>
			<path class="st9" d="M84,161c0.1-0.3,0.5-0.4,1-0.1l3.7,1.6c0.6,0.2,0.8,0.5,0.6,0.8L84.8,174c-0.2,0.4-0.1,0.8,0.2,1.1
				c0.3,0.3,0.8,0.6,1.5,0.9l1.3,0.6c1.4,0.6,2.3,0.5,2.6-0.2l3.4-8.1c0.5-1.2,1.5-1.9,2.9-2.1c1.4-0.1,3.2,0.2,5.3,1.1l3.1,1.3
				c1.9,0.8,3.3,1.7,4.1,2.9c0.9,1.1,1.1,2.3,0.5,3.6l-5.1,11.9c-0.1,0.3-0.5,0.4-1.1,0.1l-3.7-1.6c-0.6-0.2-0.8-0.5-0.6-0.9
				l4.8-11.3c0.2-0.4,0.1-0.8-0.2-1.1c-0.3-0.3-0.8-0.6-1.5-0.9l-1.6-0.7c-1.4-0.6-2.3-0.5-2.6,0.2l-3.4,8.1
				c-0.5,1.2-1.5,1.9-2.9,2.1c-1.4,0.1-3.2-0.2-5.3-1.1l-2.8-1.2c-1.9-0.8-3.3-1.7-4.1-2.9c-0.9-1.1-1.1-2.3-0.5-3.6L84,161z"/>
			<path class="st9" d="M97,139.9c0.2-0.3,0.5-0.3,1,0.1l3.4,2.3c0.5,0.4,0.7,0.7,0.5,1l-5.7,8.7c-0.3,0.5-0.5,1-0.6,1.4
				c-0.1,0.4,0,0.9,0.2,1.3c0.2,0.4,0.6,0.9,1.2,1.4c0.5,0.5,1.3,1,2.2,1.6l4.9,3.3c0.9,0.6,1.7,1.1,2.4,1.4s1.3,0.5,1.7,0.5
				c0.5,0,0.9-0.1,1.3-0.3c0.4-0.2,0.7-0.6,1.1-1.1l5.7-8.7c0.2-0.3,0.5-0.3,1,0.1l3.4,2.3c0.5,0.3,0.7,0.6,0.5,0.9l-5.8,8.8
				c-0.7,1-1.4,1.7-2.2,2.2c-0.8,0.5-1.7,0.7-2.7,0.6c-1,0-2.2-0.4-3.5-0.9c-1.3-0.6-2.8-1.4-4.5-2.5l-6-4c-1.7-1.1-3-2.1-4.1-3.1
				c-1-1-1.8-1.9-2.2-2.8c-0.4-0.9-0.6-1.8-0.5-2.7c0.1-0.9,0.5-1.9,1.2-2.8L97,139.9z"/>
			<path class="st9" d="M111,124.4c0.8-0.8,1.7-1.4,2.6-1.7c0.9-0.3,1.8-0.3,2.8-0.1c1,0.2,2.1,0.8,3.2,1.6c1.2,0.8,2.4,1.9,3.9,3.3
				l5.1,5c1.4,1.4,2.6,2.7,3.4,3.8c0.8,1.2,1.4,2.2,1.6,3.2c0.3,1,0.2,1.9-0.1,2.8c-0.3,0.9-0.9,1.7-1.7,2.6l-5.1,5.2
				c-0.8,0.8-1.7,1.4-2.5,1.7c-0.9,0.3-1.8,0.4-2.8,0.1c-1-0.2-2.1-0.8-3.2-1.6c-1.2-0.8-2.5-1.9-3.9-3.3l-5.1-5
				c-1.4-1.4-2.6-2.7-3.4-3.8c-0.8-1.1-1.4-2.2-1.6-3.2c-0.3-1-0.2-1.9,0-2.8c0.3-0.9,0.9-1.7,1.7-2.6L111,124.4z M116.5,144.1
				c0.8,0.8,1.5,1.4,2.1,1.8c0.6,0.4,1.1,0.7,1.6,0.9c0.5,0.1,0.9,0.1,1.3,0s0.8-0.5,1.3-0.9l4.9-5c0.4-0.4,0.7-0.9,0.9-1.3
				c0.2-0.4,0.2-0.9,0-1.3c-0.1-0.5-0.4-1-0.9-1.6c-0.5-0.6-1.1-1.3-1.8-2l-4.5-4.4c-0.8-0.8-1.5-1.4-2.1-1.8
				c-0.6-0.4-1.1-0.7-1.6-0.9c-0.5-0.1-0.9-0.1-1.3,0c-0.4,0.2-0.8,0.5-1.3,0.9l-4.9,5c-0.4,0.4-0.7,0.9-0.9,1.3
				c-0.1,0.4-0.2,0.9,0,1.3c0.1,0.5,0.4,1,0.9,1.6c0.5,0.6,1.1,1.3,1.8,2L116.5,144.1z"/>
			<path class="st9" d="M132.4,107.7c1.5-1,3-1.1,4.4-0.4c1.5,0.8,3,2.3,4.6,4.7l1.3,2c1.3,2,2.2,3.7,2.5,5.2
				c0.3,1.5,0.1,2.7-0.7,3.7l8.3,5.1c0.1,0.1,0.3,0.2,0.4,0.5c0.1,0.2,0.1,0.4-0.1,0.6l-2.5,1.7c-0.2,0.1-0.3,0.2-0.4,0.1
				c-0.1,0-0.3-0.1-0.4-0.2l-7.9-5.1l-6.3,4.2l4.6,6.9c0.3,0.5,0.4,0.9,0.1,1l-2.1,1.4c-0.3,0.2-0.6,0-1-0.5l-15.1-22.5
				c-0.5-0.7-0.5-1.2-0.1-1.4L132.4,107.7z M132.7,125.5l7.4-5c0.7-0.4,1-1,0.9-1.7c-0.1-0.7-0.5-1.6-1.2-2.6l-1-1.5
				c-0.7-1-1.4-1.7-2-2c-0.6-0.3-1.3-0.3-1.9,0.2l-7.2,4.8c-0.2,0.1-0.2,0.3,0,0.6L132.7,125.5z"/>
			<path class="st9" d="M158.9,94.7c0.3-0.1,0.6,0.1,0.9,0.6l1.6,3.8c0.3,0.6,0.2,1-0.1,1.1l-6.7,2.9l8.8,20.5
				c0.2,0.6,0.2,0.9-0.1,1l-2.3,1c-0.3,0.1-0.6-0.1-0.8-0.6l-8.8-20.5l-6.7,2.9c-0.3,0.1-0.6-0.1-0.9-0.7l-1.6-3.8
				c-0.2-0.6-0.2-0.9,0.1-1.1L158.9,94.7z"/>
			<path class="st9" d="M181.3,89.1c0.3-0.1,0.6,0.2,0.7,0.8l0.9,3.9c0.1,0.6,0,0.9-0.3,1l-11.4,2.6c-0.4,0.1-0.7,0.4-0.8,0.8
				c-0.1,0.4-0.1,1,0.1,1.7l0.3,1.4c0.3,1.5,0.9,2.2,1.7,2l8.6-1.9c1.3-0.3,2.5,0.1,3.4,1.1c0.9,1.1,1.7,2.7,2.2,5l0.7,3.3
				c0.4,2,0.5,3.7,0.1,5c-0.4,1.4-1.3,2.2-2.6,2.5l-12.6,2.8c-0.4,0.1-0.6-0.2-0.7-0.8l-0.9-3.9c-0.1-0.6,0-0.9,0.3-1l12-2.7
				c0.4-0.1,0.7-0.4,0.8-0.8c0.1-0.4,0.1-1-0.1-1.7l-0.4-1.7c-0.3-1.5-0.9-2.2-1.7-2l-8.6,1.9c-1.3,0.3-2.5-0.1-3.4-1.1
				c-0.9-1.1-1.7-2.7-2.2-5l-0.7-3c-0.4-2-0.5-3.7-0.1-5c0.4-1.4,1.3-2.2,2.6-2.5L181.3,89.1z"/>
		</g>
		<g>
			<path class="st9" d="M204.5,324.5c0.4,0,0.6,0.3,0.7,1l0.4,29.1c0,0.7-0.2,1-0.6,1l-3.2,0c-0.5,0-0.7-0.3-0.7-1l-0.4-29.1
				c0-0.7,0.2-1,0.7-1L204.5,324.5z"/>
			<path class="st9" d="M235,319.1c2.2-0.6,3.9-0.3,5.3,0.9c1.4,1.2,2.5,3.3,3.3,6.2l0.7,2.4c0.7,2.4,0.9,4.5,0.7,6.1
				c-0.3,1.6-1.1,2.8-2.4,3.7l7.4,7.7c0.1,0.1,0.2,0.3,0.3,0.6c0,0.3-0.1,0.5-0.3,0.6l-3.6,1c-0.2,0.1-0.4,0.1-0.5,0
				s-0.3-0.2-0.4-0.3l-7-7.6l-9.1,2.6l2.4,8.5c0.2,0.6,0.1,1-0.4,1.1l-3,0.9c-0.4,0.1-0.7-0.1-0.9-0.8l-7.9-27.7
				c-0.2-0.9-0.1-1.4,0.5-1.5L235,319.1z M227.7,337.7l10.8-3.1c1-0.3,1.5-0.8,1.8-1.5c0.2-0.7,0.1-1.7-0.2-3l-0.5-1.8
				c-0.4-1.3-0.8-2.2-1.4-2.7s-1.3-0.6-2.3-0.4l-10.4,3c-0.2,0.1-0.3,0.3-0.2,0.6L227.7,337.7z"/>
			<path class="st9" d="M269.4,299.9c0.4-0.3,0.7-0.1,1.1,0.4l2.4,3.5c0.4,0.5,0.4,0.9,0,1.2l-10.5,7.3c-0.6,0.4-1.1,0.9-1.4,1.3
				c-0.3,0.4-0.4,0.9-0.4,1.5s0.2,1.2,0.6,1.9c0.4,0.7,0.9,1.5,1.5,2.5l0.3,0.4l13.6-9.5c0.4-0.2,0.7-0.1,1.1,0.4l2,2.9
				c0.4,0.5,0.4,0.9,0,1.2l-13.6,9.5l0.4,0.6c0.7,0.9,1.3,1.7,1.8,2.3c0.5,0.6,1.1,1,1.6,1.2c0.5,0.2,1,0.2,1.5,0.1
				c0.5-0.1,1.1-0.4,1.7-0.8l10.5-7.3c0.4-0.3,0.7-0.1,1.1,0.4l2.4,3.5c0.4,0.5,0.4,0.9,0,1.2l-10.6,7.4c-1.2,0.9-2.4,1.4-3.5,1.7
				c-1.1,0.3-2.2,0.2-3.2-0.2c-1.1-0.4-2.2-1.1-3.3-2.2c-1.1-1.1-2.3-2.5-3.5-4.2l-4.4-6.3c-1.2-1.7-2.1-3.3-2.7-4.7
				c-0.6-1.4-0.9-2.6-0.9-3.8s0.3-2.2,0.9-3.1c0.6-0.9,1.5-1.8,2.7-2.7L269.4,299.9z"/>
			<path class="st9" d="M281.3,287.4c0.3-0.3,0.6-0.3,1.2,0.1l14.2,10.6c1,0.7,1.8,1.2,2.5,1.6c0.7,0.4,1.3,0.6,1.9,0.6
				c0.5,0,1-0.1,1.5-0.4s0.9-0.7,1.4-1.3l7.1-9.5c0.3-0.3,0.6-0.3,1.2,0.1l3.5,2.6c0.5,0.4,0.7,0.8,0.4,1.1l-7.2,9.7
				c-0.9,1.2-1.8,2.1-2.8,2.7c-1,0.6-2,0.9-3.1,0.8c-1.1,0-2.4-0.4-3.8-1c-1.4-0.7-2.9-1.6-4.6-2.9l-14.7-11
				c-0.5-0.4-0.6-0.8-0.4-1.1L281.3,287.4z"/>
			<path class="st9" d="M300.9,250.7c0.2-0.7,0.6-1.2,1.2-1.6s1.6-0.6,3-0.6l28.4-1.3c0.3,0,0.6,0,0.7,0.1c0.2,0.1,0.2,0.3,0.1,0.5
				l-1.1,3.6c-0.1,0.3-0.3,0.5-0.8,0.5l-6.1,0.3l-4.1,13.2l4.9,3.6c0.3,0.2,0.4,0.5,0.4,0.8l-1.1,3.6c-0.1,0.2-0.2,0.4-0.4,0.3
				c-0.2,0-0.4-0.1-0.7-0.3l-22.6-17.1c-1.1-0.9-1.8-1.6-2.1-2.2c-0.3-0.6-0.4-1.2-0.2-1.8L300.9,250.7z M318,262l3-9.6l-13.8,0.6
				c-0.2,0-0.4,0.1-0.4,0.2l-0.1,0.2c0,0.1,0,0.3,0.2,0.4L318,262z"/>
			<path class="st9" d="M305.6,221.5c0-0.5,0-0.9,0-1.2c0-0.3,0.2-0.6,0.3-0.8c0.2-0.2,0.4-0.5,0.8-0.7c0.3-0.2,0.8-0.5,1.3-0.8
				l21-12.2c0.2-0.1,0.3-0.2,0.3-0.4l0-0.3c0-0.2-0.2-0.2-0.5-0.2l-23.1,1.4c-0.7,0-1-0.2-1-0.6l-0.2-3.1c0-0.4,0.3-0.7,0.9-0.7
				l25.4-1.5c1.8-0.1,3,0,3.7,0.4c0.7,0.4,1,1,1.1,1.9l0.1,2.5c0,0.4,0,0.8,0,1.1c0,0.3-0.1,0.6-0.3,0.8s-0.4,0.5-0.7,0.7
				c-0.3,0.2-0.8,0.5-1.4,0.9l-21,12.2c-0.2,0.1-0.3,0.3-0.3,0.4l0,0.3c0,0.2,0.2,0.2,0.5,0.2l23.1-1.4c0.7,0,1,0.2,1,0.6l0.2,3.1
				c0,0.4-0.3,0.7-0.9,0.7l-25.4,1.5c-1.8,0.1-3,0-3.7-0.4c-0.7-0.4-1-1-1.1-1.9L305.6,221.5z"/>
			<path class="st9" d="M295.5,176c-0.6-1.4-1-2.8-1-4c0-1.2,0.3-2.4,1-3.5s1.6-2.1,2.9-3c1.3-0.9,3-1.9,4.9-2.7l5.5-2.4
				c2-0.9,3.8-1.5,5.4-1.8c1.6-0.3,3-0.4,4.2-0.1c1.2,0.3,2.3,0.8,3.2,1.6c0.9,0.8,1.7,2,2.3,3.4l5.5,12.6c0.2,0.5-0.1,1-0.9,1.3
				l-26,11.4c-0.8,0.4-1.3,0.3-1.6-0.3L295.5,176z M321.8,175.4c0.4-0.2,0.5-0.3,0.4-0.6l-3.9-8.8c-0.3-0.8-0.7-1.4-1.2-1.8
				c-0.5-0.4-1-0.7-1.6-0.8c-0.6-0.1-1.4-0.1-2.3,0.1c-0.9,0.2-1.9,0.6-3.1,1.1l-4.5,2c-1.2,0.5-2.2,1-2.9,1.5
				c-0.8,0.5-1.3,1-1.6,1.6c-0.3,0.5-0.5,1.1-0.5,1.8c0,0.6,0.2,1.3,0.5,2.1l3.9,8.8c0.1,0.2,0.3,0.3,0.7,0.1L321.8,175.4z"/>
		</g>
	</g>
</g>
</svg>
