<svg id="Layer_1" data-name="Layer 1" xmlns="http://www.w3.org/2000/svg" xmlns:xlink="http://www.w3.org/1999/xlink" viewBox="0 0 94 94">
  <defs>
    <style>
      .cls-1 {
        fill: url(#linear-gradient);
      }

      .cls-2 {
        font-size: 25.77696px;
        font-family: Roboto-Regular, Roboto;
      }

      .cls-2, .cls-5 {
        fill: #fff;
      }

      .cls-3 {
        letter-spacing: -0.03664em;
      }

      .cls-4 {
        letter-spacing: 0.00007em;
      }
    </style>
    <linearGradient id="linear-gradient" x1="16.32185" y1="8.84559" x2="79.04507" y2="86.85446" gradientUnits="userSpaceOnUse">
      <stop offset="0" stop-color="#ffe1c8"/>
      <stop offset="0.18219" stop-color="#ffccc7"/>
      <stop offset="0.55763" stop-color="#ff97c4"/>
      <stop offset="1" stop-color="#ff51c0"/>
    </linearGradient>
  </defs>
  <title>new-arrival</title>
  <g id="Outer_Ring" data-name="Outer Ring">
    <circle class="cls-1" cx="47" cy="47" r="47"/>
  </g>
  <g>
    <text class="cls-2" transform="translate(16.80981 63.33618) scale(0.58 0.77)">ARRI<tspan class="cls-3" x="58.13578" y="0">V</tspan><tspan class="cls-4" x="73.49138" y="0">AL</tspan></text>
    <text class="cls-2" transform="translate(15.5144 47.33618) scale(1.12 1)">NEW</text>
  </g>
  <g id="Dashed_Line" data-name="Dashed Line">
    <path class="cls-5" d="M47,90.25a43.51536,43.51536,0,0,1-9.49121-1.04492,1.50009,1.50009,0,1,1,.65527-2.92774,40.78266,40.78266,0,0,0,17.90723-.05371,1.50024,1.50024,0,0,1,.67383,2.92383A43.50347,43.50347,0,0,1,47,90.25ZM21.07959,81.23242a1.49379,1.49379,0,0,1-.93115-.32519A43.64651,43.64651,0,0,1,8.09521,65.916a1.50026,1.50026,0,0,1,2.69727-1.31446A40.6365,40.6365,0,0,0,22.0127,78.55762a1.49991,1.49991,0,0,1-.93311,2.6748Zm52.03467-.15527a1.50006,1.50006,0,0,1-.94043-2.66992A40.615,40.615,0,0,0,83.3125,64.38477a1.49994,1.49994,0,1,1,2.70508,1.29687A43.64473,43.64473,0,0,1,74.05176,80.74707,1.49514,1.49514,0,0,1,73.11426,81.07715ZM5.251,48.669a1.49934,1.49934,0,0,1-1.5-1.49952l-.001-.14355A42.875,42.875,0,0,1,8.02,28.23975a1.49989,1.49989,0,1,1,2.70215,1.30273A39.87592,39.87592,0,0,0,6.75,47l.001.16943A1.49935,1.49935,0,0,1,5.251,48.669Zm83.499-.25489a1.49965,1.49965,0,0,1-1.5-1.49658A39.86748,39.86748,0,0,0,83.24414,29.4707a1.49964,1.49964,0,1,1,2.69922-1.30761A42.84314,42.84314,0,0,1,90.25,46.91162a1.499,1.499,0,0,1-1.49707,1.50244ZM20.95312,15.87061a1.5,1.5,0,0,1-.9375-2.67188A43.36487,43.36487,0,0,1,37.34131,4.8335a1.49994,1.49994,0,1,1,.667,2.9248,40.34434,40.34434,0,0,0-16.11963,7.78418A1.49445,1.49445,0,0,1,20.95312,15.87061Zm52.03126-.04981a1.49335,1.49335,0,0,1-.9336-.32666A40.35566,40.35566,0,0,0,55.915,7.74023a1.49988,1.49988,0,1,1,.66211-2.92578,43.36644,43.36644,0,0,1,17.34277,8.333,1.4998,1.4998,0,0,1-.93554,2.67334Z"/>
  </g>
</svg>
